<svg width="163" height="18" viewBox="0 0 163 18" fill="none" xmlns="http://www.w3.org/2000/svg">
<path d="M12.474 1.45053V4.46453H8.382V16.8945H4.62V4.46453H0.528V1.45053H12.474ZM21.908 4.48653C23.316 4.48653 24.4454 4.95586 25.296 5.89453C26.1467 6.81853 26.572 8.09453 26.572 9.72253V16.8945H22.832V10.2285C22.832 9.4072 22.6194 8.7692 22.194 8.31453C21.7687 7.85986 21.1967 7.63253 20.478 7.63253C19.7594 7.63253 19.1874 7.85986 18.762 8.31453C18.3367 8.7692 18.124 9.4072 18.124 10.2285V16.8945H14.362V0.614531H18.124V6.26853C18.5054 5.72586 19.026 5.2932 19.686 4.97053C20.346 4.64786 21.0867 4.48653 21.908 4.48653ZM40.7583 10.5585C40.7583 10.9105 40.7363 11.2772 40.6923 11.6585H32.1783C32.2369 12.4212 32.4789 13.0079 32.9043 13.4185C33.3443 13.8145 33.8796 14.0125 34.5103 14.0125C35.4489 14.0125 36.1016 13.6165 36.4683 12.8245H40.4723C40.2669 13.6312 39.8929 14.3572 39.3503 15.0025C38.8223 15.6479 38.1549 16.1539 37.3483 16.5205C36.5416 16.8872 35.6396 17.0705 34.6423 17.0705C33.4396 17.0705 32.3689 16.8139 31.4303 16.3005C30.4916 15.7872 29.7583 15.0539 29.2303 14.1005C28.7023 13.1472 28.4383 12.0325 28.4383 10.7565C28.4383 9.48053 28.6949 8.36586 29.2083 7.41253C29.7363 6.4592 30.4696 5.72586 31.4083 5.21253C32.3469 4.6992 33.4249 4.44253 34.6423 4.44253C35.8303 4.44253 36.8863 4.69186 37.8103 5.19053C38.7343 5.6892 39.4529 6.40053 39.9663 7.32453C40.4943 8.24853 40.7583 9.32653 40.7583 10.5585ZM36.9083 9.56853C36.9083 8.9232 36.6883 8.40986 36.2483 8.02853C35.8083 7.6472 35.2583 7.45653 34.5983 7.45653C33.9676 7.45653 33.4323 7.63986 32.9923 8.00653C32.5669 8.3732 32.3029 8.89386 32.2003 9.56853H36.9083ZM59.175 6.42253C59.175 7.3172 58.9697 8.13853 58.559 8.88653C58.1483 9.61986 57.5177 10.2139 56.667 10.6685C55.8163 11.1232 54.7603 11.3505 53.499 11.3505H51.167V16.8945H47.405V1.45053H53.499C54.731 1.45053 55.7723 1.6632 56.623 2.08853C57.4737 2.51386 58.1117 3.10053 58.537 3.84853C58.9623 4.59653 59.175 5.45453 59.175 6.42253ZM53.213 8.35853C53.9317 8.35853 54.467 8.18986 54.819 7.85253C55.171 7.5152 55.347 7.03853 55.347 6.42253C55.347 5.80653 55.171 5.32986 54.819 4.99253C54.467 4.6552 53.9317 4.48653 53.213 4.48653H51.167V8.35853H53.213ZM64.8955 0.614531V16.8945H61.1335V0.614531H64.8955ZM66.8738 10.7345C66.8738 9.4732 67.1085 8.36586 67.5778 7.41253C68.0618 6.4592 68.7145 5.72586 69.5358 5.21253C70.3571 4.6992 71.2738 4.44253 72.2858 4.44253C73.1511 4.44253 73.9065 4.61853 74.5518 4.97053C75.2118 5.32253 75.7178 5.78453 76.0698 6.35653V4.61853H79.8318V16.8945H76.0698V15.1565C75.7031 15.7285 75.1898 16.1905 74.5298 16.5425C73.8845 16.8945 73.1291 17.0705 72.2638 17.0705C71.2665 17.0705 70.3571 16.8139 69.5358 16.3005C68.7145 15.7725 68.0618 15.0319 67.5778 14.0785C67.1085 13.1105 66.8738 11.9959 66.8738 10.7345ZM76.0698 10.7565C76.0698 9.81786 75.8058 9.0772 75.2778 8.53453C74.7645 7.99186 74.1338 7.72053 73.3858 7.72053C72.6378 7.72053 71.9998 7.99186 71.4718 8.53453C70.9585 9.06253 70.7018 9.79586 70.7018 10.7345C70.7018 11.6732 70.9585 12.4212 71.4718 12.9785C71.9998 13.5212 72.6378 13.7925 73.3858 13.7925C74.1338 13.7925 74.7645 13.5212 75.2778 12.9785C75.8058 12.4359 76.0698 11.6952 76.0698 10.7565ZM90.0335 4.48653C91.4708 4.48653 92.6148 4.95586 93.4655 5.89453C94.3308 6.81853 94.7635 8.09453 94.7635 9.72253V16.8945H91.0235V10.2285C91.0235 9.4072 90.8108 8.7692 90.3855 8.31453C89.9601 7.85986 89.3881 7.63253 88.6695 7.63253C87.9508 7.63253 87.3788 7.85986 86.9535 8.31453C86.5281 8.7692 86.3155 9.4072 86.3155 10.2285V16.8945H82.5535V4.61853H86.3155V6.24653C86.6968 5.70386 87.2101 5.27853 87.8555 4.97053C88.5008 4.64786 89.2268 4.48653 90.0335 4.48653ZM104.22 13.7045V16.8945H102.306C100.942 16.8945 99.8783 16.5645 99.1157 15.9045C98.353 15.2299 97.9717 14.1372 97.9717 12.6265V7.74253H96.4757V4.61853H97.9717V1.62653H101.734V4.61853H104.198V7.74253H101.734V12.6705C101.734 13.0372 101.822 13.3012 101.998 13.4625C102.174 13.6239 102.467 13.7045 102.878 13.7045H104.22ZM111.309 17.0705C110.239 17.0705 109.285 16.8872 108.449 16.5205C107.613 16.1539 106.953 15.6552 106.469 15.0245C105.985 14.3792 105.714 13.6605 105.655 12.8685H109.373C109.417 13.2939 109.615 13.6385 109.967 13.9025C110.319 14.1665 110.752 14.2985 111.265 14.2985C111.735 14.2985 112.094 14.2105 112.343 14.0345C112.607 13.8439 112.739 13.6019 112.739 13.3085C112.739 12.9565 112.556 12.6999 112.189 12.5385C111.823 12.3625 111.229 12.1719 110.407 11.9665C109.527 11.7612 108.794 11.5485 108.207 11.3285C107.621 11.0939 107.115 10.7345 106.689 10.2505C106.264 9.75186 106.051 9.08453 106.051 8.24853C106.051 7.54453 106.242 6.90653 106.623 6.33453C107.019 5.74786 107.591 5.28586 108.339 4.94853C109.102 4.6112 110.004 4.44253 111.045 4.44253C112.585 4.44253 113.795 4.82386 114.675 5.58653C115.57 6.3492 116.083 7.3612 116.215 8.62253H112.739C112.681 8.1972 112.49 7.85986 112.167 7.61053C111.859 7.3612 111.449 7.23653 110.935 7.23653C110.495 7.23653 110.158 7.32453 109.923 7.50053C109.689 7.66186 109.571 7.8892 109.571 8.18253C109.571 8.53453 109.755 8.79853 110.121 8.97453C110.503 9.15053 111.089 9.32653 111.881 9.50253C112.791 9.7372 113.531 9.97186 114.103 10.2065C114.675 10.4265 115.174 10.7932 115.599 11.3065C116.039 11.8052 116.267 12.4799 116.281 13.3305C116.281 14.0492 116.076 14.6945 115.665 15.2665C115.269 15.8239 114.69 16.2639 113.927 16.5865C113.179 16.9092 112.307 17.0705 111.309 17.0705ZM125.425 13.7045V16.8945H123.511C122.147 16.8945 121.083 16.5645 120.321 15.9045C119.558 15.2299 119.177 14.1372 119.177 12.6265V7.74253H117.681V4.61853H119.177V1.62653H122.939V4.61853H125.403V7.74253H122.939V12.6705C122.939 13.0372 123.027 13.3012 123.203 13.4625C123.379 13.6239 123.672 13.7045 124.083 13.7045H125.425ZM133.108 17.0705C131.906 17.0705 130.82 16.8139 129.852 16.3005C128.899 15.7872 128.144 15.0539 127.586 14.1005C127.044 13.1472 126.772 12.0325 126.772 10.7565C126.772 9.4952 127.051 8.38786 127.608 7.43453C128.166 6.46653 128.928 5.72586 129.896 5.21253C130.864 4.6992 131.95 4.44253 133.152 4.44253C134.355 4.44253 135.44 4.6992 136.408 5.21253C137.376 5.72586 138.139 6.46653 138.696 7.43453C139.254 8.38786 139.532 9.4952 139.532 10.7565C139.532 12.0179 139.246 13.1325 138.674 14.1005C138.117 15.0539 137.347 15.7872 136.364 16.3005C135.396 16.8139 134.311 17.0705 133.108 17.0705ZM133.108 13.8145C133.827 13.8145 134.436 13.5505 134.934 13.0225C135.448 12.4945 135.704 11.7392 135.704 10.7565C135.704 9.77386 135.455 9.01853 134.956 8.49053C134.472 7.96253 133.871 7.69853 133.152 7.69853C132.419 7.69853 131.81 7.96253 131.326 8.49053C130.842 9.00386 130.6 9.7592 130.6 10.7565C130.6 11.7392 130.835 12.4945 131.304 13.0225C131.788 13.5505 132.39 13.8145 133.108 13.8145ZM145.29 6.66453C145.73 5.98986 146.28 5.46186 146.94 5.08053C147.6 4.68453 148.333 4.48653 149.14 4.48653V8.46853H148.106C147.167 8.46853 146.463 8.67386 145.994 9.08453C145.525 9.48053 145.29 10.1845 145.29 11.1965V16.8945H141.528V4.61853H145.29V6.66453ZM162.51 10.5585C162.51 10.9105 162.488 11.2772 162.444 11.6585H153.93C153.989 12.4212 154.231 13.0079 154.656 13.4185C155.096 13.8145 155.632 14.0125 156.262 14.0125C157.201 14.0125 157.854 13.6165 158.22 12.8245H162.224C162.019 13.6312 161.645 14.3572 161.102 15.0025C160.574 15.6479 159.907 16.1539 159.1 16.5205C158.294 16.8872 157.392 17.0705 156.394 17.0705C155.192 17.0705 154.121 16.8139 153.182 16.3005C152.244 15.7872 151.51 15.0539 150.982 14.1005C150.454 13.1472 150.19 12.0325 150.19 10.7565C150.19 9.48053 150.447 8.36586 150.96 7.41253C151.488 6.4592 152.222 5.72586 153.16 5.21253C154.099 4.6992 155.177 4.44253 156.394 4.44253C157.582 4.44253 158.638 4.69186 159.562 5.19053C160.486 5.6892 161.205 6.40053 161.718 7.32453C162.246 8.24853 162.51 9.32653 162.51 10.5585ZM158.66 9.56853C158.66 8.9232 158.44 8.40986 158 8.02853C157.56 7.6472 157.01 7.45653 156.35 7.45653C155.72 7.45653 155.184 7.63986 154.744 8.00653C154.319 8.3732 154.055 8.89386 153.952 9.56853H158.66Z" fill="white"/>
</svg>
